<svg width="453" height="262" viewBox="0 0 453 262" fill="none" xmlns="http://www.w3.org/2000/svg">
<g filter="url(#filter0_i_977_35)">
<path fill-rule="evenodd" clip-rule="evenodd" d="M56.9609 31C56.9609 13.8792 70.8402 0 87.961 0H333.244C350.364 0 364.244 13.8792 364.244 31V54C364.244 71.1208 378.123 85 395.244 85H422C439.121 85 453 98.8792 453 116V148C453 165.121 439.121 179 422 179H357.5C341.76 179 329 191.76 329 207.5V207.5C329 223.24 316.24 236 300.5 236H239.144C232.108 236 226.404 241.703 226.404 248.739V248.739C226.404 255.775 220.701 261.478 213.665 261.478H111.907C94.9303 261.478 81.168 247.716 81.168 230.739V230.739C81.168 213.762 67.4056 200 50.4289 200H24.5C10.969 200 0 189.031 0 175.5V175.5C0 161.969 10.969 151 24.5 151H128.567C144.27 151 157 138.27 157 122.567V122.567C157 106.864 144.27 94.1347 128.567 94.1347H87.9609C70.8401 94.1347 56.9609 80.2556 56.9609 63.1347V31Z" fill="#DAEEFF"/>
</g>
<defs>
<filter id="filter0_i_977_35" x="-6" y="0" width="459" height="291.479" filterUnits="userSpaceOnUse" color-interpolation-filters="sRGB">
<feFlood flood-opacity="0" result="BackgroundImageFix"/>
<feBlend mode="normal" in="SourceGraphic" in2="BackgroundImageFix" result="shape"/>
<feColorMatrix in="SourceAlpha" type="matrix" values="0 0 0 0 0 0 0 0 0 0 0 0 0 0 0 0 0 0 127 0" result="hardAlpha"/>
<feOffset dx="-6" dy="30"/>
<feGaussianBlur stdDeviation="60"/>
<feComposite in2="hardAlpha" operator="arithmetic" k2="-1" k3="1"/>
<feColorMatrix type="matrix" values="0 0 0 0 0.203922 0 0 0 0 0.662745 0 0 0 0 0.882353 0 0 0 0.25 0"/>
<feBlend mode="normal" in2="shape" result="effect1_innerShadow_977_35"/>
</filter>
</defs>
</svg>
