<svg width="66" height="44" viewBox="0 0 66 44" fill="none" xmlns="http://www.w3.org/2000/svg">
<path fill-rule="evenodd" clip-rule="evenodd" d="M38.9161 0C32.841 0 27.9161 4.92488 27.9161 11V26.3768V26.3768C27.9161 28.1819 26.6402 30 24.8351 30H7.49805C3.9082 30 0.998047 32.9101 0.998047 36.5C0.998047 40.0899 3.9082 43 7.49805 43H30.498C33.1647 43 35.4563 41.3942 36.4586 39.0967C36.8835 38.1227 37.8535 37.3768 38.9161 37.3768V37.3768H67.3911C67.9197 37.3768 68.4396 37.3395 68.9482 37.2674C71.1341 36.9577 73.8039 38.392 73.8039 40.5997V40.5997C73.8039 42.0963 75.0171 43.3095 76.5137 43.3095H99.0394C99.0395 43.3095 99.0396 43.3096 99.0396 43.3097V43.3097C99.0396 43.3098 99.0397 43.3098 99.0398 43.3098H108.217C113.285 43.3098 117.394 39.201 117.394 34.1326V26.1935C117.394 22.8678 114.698 20.1719 111.372 20.1719V20.1719C108.047 20.1719 105.351 17.4759 105.351 14.1502V13.3489C105.351 9.58076 102.296 6.52604 98.5279 6.52604H88.4278C81.7468 6.52604 75.6773 1.14142 69.0736 0.12786C68.525 0.0436705 67.9632 0 67.3911 0H38.9161Z" fill="url(#paint0_linear_999_11)"/>
<defs>
<linearGradient id="paint0_linear_999_11" x1="59.1961" y1="-12.78" x2="59.1961" y2="43.3098" gradientUnits="userSpaceOnUse">
<stop stop-color="#E6F7FF"/>
<stop offset="1" stop-color="white"/>
</linearGradient>
</defs>
</svg>
