<svg width="282" height="155" viewBox="0 0 282 155" fill="none" xmlns="http://www.w3.org/2000/svg">
<g filter="url(#filter0_di_977_90)">
<path fill-rule="evenodd" clip-rule="evenodd" d="M197.659 45C197.659 36.1634 190.495 29 181.659 29H119.667C110.83 29 103.667 36.1634 103.667 45V49.8941C103.667 58.7307 96.5032 65.8941 87.6667 65.8941H54.0387C48.9428 65.8941 44.8118 70.0252 44.8118 75.1211V76.4422C44.8118 80.8085 41.2722 84.348 36.9059 84.348V84.348C32.5396 84.348 29 87.8876 29 92.2539V96.8305C29 103.724 34.5886 109.313 41.4824 109.313H95.5094C100.015 109.313 103.667 112.965 103.667 117.47V117.47C103.667 121.975 107.319 125.627 111.824 125.627H237C245.837 125.627 253 118.464 253 109.627V102.976C253 94.1399 245.837 86.9765 237 86.9765H157.69C152.596 86.9765 148.467 82.847 148.467 77.7529V77.7529C148.467 72.6589 152.596 68.5294 157.69 68.5294H181.659C190.495 68.5294 197.659 61.366 197.659 52.5294V45Z" fill="url(#paint0_linear_977_90)"/>
</g>
<defs>
<filter id="filter0_di_977_90" x="0" y="0" width="282" height="154.628" filterUnits="userSpaceOnUse" color-interpolation-filters="sRGB">
<feFlood flood-opacity="0" result="BackgroundImageFix"/>
<feColorMatrix in="SourceAlpha" type="matrix" values="0 0 0 0 0 0 0 0 0 0 0 0 0 0 0 0 0 0 127 0" result="hardAlpha"/>
<feOffset/>
<feGaussianBlur stdDeviation="14.5"/>
<feComposite in2="hardAlpha" operator="out"/>
<feColorMatrix type="matrix" values="0 0 0 0 0.203922 0 0 0 0 0.662745 0 0 0 0 0.882353 0 0 0 0.13 0"/>
<feBlend mode="normal" in2="BackgroundImageFix" result="effect1_dropShadow_977_90"/>
<feBlend mode="normal" in="SourceGraphic" in2="effect1_dropShadow_977_90" result="shape"/>
<feColorMatrix in="SourceAlpha" type="matrix" values="0 0 0 0 0 0 0 0 0 0 0 0 0 0 0 0 0 0 127 0" result="hardAlpha"/>
<feOffset dy="6"/>
<feGaussianBlur stdDeviation="33"/>
<feComposite in2="hardAlpha" operator="arithmetic" k2="-1" k3="1"/>
<feColorMatrix type="matrix" values="0 0 0 0 0.203922 0 0 0 0 0.662745 0 0 0 0 0.882353 0 0 0 0.06 0"/>
<feBlend mode="normal" in2="shape" result="effect2_innerShadow_977_90"/>
</filter>
<linearGradient id="paint0_linear_977_90" x1="141" y1="0.48698" x2="141" y2="125.627" gradientUnits="userSpaceOnUse">
<stop stop-color="#E6F7FF"/>
<stop offset="1" stop-color="white"/>
</linearGradient>
</defs>
</svg>
