<svg width="113" height="79" viewBox="0 0 113 79" fill="none" xmlns="http://www.w3.org/2000/svg">
<g filter="url(#filter0_di_981_2)">
<path fill-rule="evenodd" clip-rule="evenodd" d="M71.998 32C71.998 30.3431 70.6549 29 68.998 29H35.998C32.6843 29 29.998 31.6863 29.998 35V36C29.998 39.3137 32.6843 42 35.998 42H41.998C44.2072 42 45.998 43.7909 45.998 46V46C45.998 48.2091 47.7889 50 49.998 50H77.998C81.3118 50 83.998 47.3137 83.998 44V41C83.998 37.6863 81.3118 35 77.998 35H74.998C73.3412 35 71.998 33.6569 71.998 32V32Z" fill="url(#paint0_linear_981_2)"/>
</g>
<defs>
<filter id="filter0_di_981_2" x="0.998047" y="0" width="112" height="79" filterUnits="userSpaceOnUse" color-interpolation-filters="sRGB">
<feFlood flood-opacity="0" result="BackgroundImageFix"/>
<feColorMatrix in="SourceAlpha" type="matrix" values="0 0 0 0 0 0 0 0 0 0 0 0 0 0 0 0 0 0 127 0" result="hardAlpha"/>
<feOffset/>
<feGaussianBlur stdDeviation="14.5"/>
<feComposite in2="hardAlpha" operator="out"/>
<feColorMatrix type="matrix" values="0 0 0 0 0.203922 0 0 0 0 0.662745 0 0 0 0 0.882353 0 0 0 0.13 0"/>
<feBlend mode="normal" in2="BackgroundImageFix" result="effect1_dropShadow_981_2"/>
<feBlend mode="normal" in="SourceGraphic" in2="effect1_dropShadow_981_2" result="shape"/>
<feColorMatrix in="SourceAlpha" type="matrix" values="0 0 0 0 0 0 0 0 0 0 0 0 0 0 0 0 0 0 127 0" result="hardAlpha"/>
<feOffset dy="6"/>
<feGaussianBlur stdDeviation="33"/>
<feComposite in2="hardAlpha" operator="arithmetic" k2="-1" k3="1"/>
<feColorMatrix type="matrix" values="0 0 0 0 0.203922 0 0 0 0 0.662745 0 0 0 0 0.882353 0 0 0 0.06 0"/>
<feBlend mode="normal" in2="shape" result="effect2_innerShadow_981_2"/>
</filter>
<linearGradient id="paint0_linear_981_2" x1="56.998" y1="22.8033" x2="56.998" y2="50" gradientUnits="userSpaceOnUse">
<stop stop-color="#E6F7FF"/>
<stop offset="1" stop-color="white"/>
</linearGradient>
</defs>
</svg>
