<svg width="434" height="136" viewBox="0 0 434 136" fill="none" xmlns="http://www.w3.org/2000/svg">
<g filter="url(#filter0_i_977_28)">
<path fill-rule="evenodd" clip-rule="evenodd" d="M245.708 9.71443C245.708 4.35173 241.36 0.00439453 235.998 0.00439453H124.704C117.853 0.00439453 112.299 5.55801 112.299 12.4087V12.4087C112.299 19.2595 106.746 24.8131 99.8949 24.8131H59.0106C49.0695 24.8131 41.0106 32.8719 41.0106 42.8131V46.7161C41.0106 56.6572 32.9517 64.7161 23.0106 64.7161H18C8.05888 64.7161 0 72.775 0 82.7161V117.655C0 127.596 8.05888 135.655 18 135.655H174.618C183.165 135.655 190.093 128.726 190.093 120.18V120.18C190.093 111.633 197.022 104.705 205.568 104.705H273.304C283.245 104.705 291.304 96.6461 291.304 86.705V80.4867C291.304 70.5456 299.363 62.4867 309.304 62.4867H342.809C347.472 62.4867 351.253 66.2671 351.253 70.9305V70.9305C351.253 75.5939 355.033 79.3743 359.697 79.3743H420.068C427.762 79.3743 434 73.1367 434 65.4423V65.4423C434 57.748 427.762 51.5104 420.068 51.5104H389.25C380.39 51.5104 373.207 44.3278 373.207 35.4675V35.4675C373.207 26.6072 366.024 19.4245 357.164 19.4245H255.418C250.055 19.4245 245.708 15.0771 245.708 9.71443V9.71443Z" fill="#DAEEFF"/>
</g>
<defs>
<filter id="filter0_i_977_28" x="-6" y="0.00439453" width="440" height="221.65" filterUnits="userSpaceOnUse" color-interpolation-filters="sRGB">
<feFlood flood-opacity="0" result="BackgroundImageFix"/>
<feBlend mode="normal" in="SourceGraphic" in2="BackgroundImageFix" result="shape"/>
<feColorMatrix in="SourceAlpha" type="matrix" values="0 0 0 0 0 0 0 0 0 0 0 0 0 0 0 0 0 0 127 0" result="hardAlpha"/>
<feOffset dx="-6" dy="86"/>
<feGaussianBlur stdDeviation="60"/>
<feComposite in2="hardAlpha" operator="arithmetic" k2="-1" k3="1"/>
<feColorMatrix type="matrix" values="0 0 0 0 0.203922 0 0 0 0 0.662745 0 0 0 0 0.882353 0 0 0 0.25 0"/>
<feBlend mode="normal" in2="shape" result="effect1_innerShadow_977_28"/>
</filter>
</defs>
</svg>
