<svg width="50" height="35" viewBox="0 0 50 35" fill="none" xmlns="http://www.w3.org/2000/svg">
<mask id="path-2-inside-1_862_79" fill="white">
<path d="M14.4871 18.5613L14.5733 18.4275L19.8508 10.3584C19.8684 10.3318 19.8931 10.3104 19.9221 10.2964C19.9511 10.2824 19.9835 10.2762 20.0158 10.2786C20.048 10.2809 20.0791 10.2917 20.1057 10.3098C20.1322 10.328 20.1533 10.3527 20.1668 10.3815C21.0455 12.3129 21.8093 14.7151 21.4511 16.2103C21.3024 16.8249 20.885 17.6576 20.4135 18.4275C20.353 18.5401 20.287 18.6498 20.2158 18.7562C20.1987 18.78 20.1759 18.7992 20.1493 18.8122C20.1228 18.8252 20.0933 18.8315 20.0637 18.8306H14.6443C14.6119 18.8311 14.58 18.823 14.552 18.8072C14.524 18.7914 14.5009 18.7685 14.4851 18.7408C14.4693 18.7132 14.4615 18.682 14.4624 18.6503C14.4634 18.6187 14.4731 18.5879 14.4905 18.5613H14.4871ZM38 21.3369C38.0004 21.3722 37.9902 21.4068 37.9707 21.4365C37.9512 21.4661 37.9232 21.4895 37.8901 21.5038C37.4795 21.6739 36.082 22.305 35.5007 23.0931C34.017 25.112 32.8847 28 30.3499 28H19.7815C18.8892 27.9987 18.0059 27.8255 17.182 27.4903C16.3582 27.1551 15.61 26.6645 14.9803 26.0464C14.3505 25.4284 13.8514 24.6951 13.5117 23.8884C13.1719 23.0818 12.998 22.2175 13 21.3452V21.2262C13 21.1304 13.0811 21.0511 13.1825 21.0511H19.0717C19.19 21.0511 19.2745 21.1552 19.2661 21.2692C19.2221 21.6425 19.2948 22.0275 19.4773 22.3761C19.8254 23.07 20.5521 23.5029 21.3345 23.5029H24.2512V21.2774H21.3649C21.3311 21.2771 21.298 21.2677 21.2692 21.2503C21.2404 21.233 21.217 21.2082 21.2016 21.1788C21.1861 21.1494 21.1791 21.1164 21.1814 21.0835C21.1837 21.0505 21.1951 21.0187 21.2145 20.9916L21.3209 20.8429C21.5913 20.4613 21.9817 19.8747 22.3704 19.204C22.634 18.7513 22.8908 18.2689 23.097 17.7831C23.1376 17.6972 23.1697 17.6063 23.2068 17.5188C23.2626 17.3635 23.3201 17.2181 23.3606 17.0743C23.4004 16.9525 23.437 16.8296 23.4705 16.7059C23.5668 16.2929 23.6073 15.8567 23.6073 15.4057C23.6073 15.2272 23.6006 15.0406 23.5837 14.8654C23.5752 14.6721 23.5499 14.4772 23.5262 14.2839C23.5073 14.1109 23.4803 13.9389 23.4451 13.7684C23.3996 13.5088 23.3444 13.2509 23.2795 12.9952L23.2559 12.8961C23.2052 12.7176 23.1612 12.5491 23.1038 12.3723C22.9429 11.8295 22.7579 11.2937 22.5495 10.7664C22.4769 10.5681 22.3968 10.3725 22.3095 10.1799C22.1879 9.88585 22.0628 9.61986 21.9496 9.37038C21.8932 9.2635 21.8403 9.15496 21.7907 9.04491C21.7358 8.92619 21.6777 8.80885 21.6167 8.693C21.5761 8.60544 21.5271 8.52118 21.495 8.44188L21.1384 7.80084C21.0894 7.71328 21.1705 7.60589 21.2686 7.63398L23.4992 8.22379H23.5161L23.8084 8.3064L24.1329 8.39562L24.2512 8.42701V7.13338C24.2512 6.50721 24.7615 6 25.3986 6C25.549 5.99961 25.698 6.02897 25.8365 6.08632C25.9751 6.14368 26.1003 6.22784 26.2047 6.33374C26.4204 6.5465 26.5419 6.83377 26.5427 7.13338V9.05648L26.7809 9.12091C26.7978 9.12917 26.8181 9.13743 26.8333 9.149C26.8908 9.18865 26.9753 9.25143 27.0817 9.33073C27.1662 9.39351 27.2558 9.47282 27.3606 9.55708C27.6943 9.82288 28.0178 10.1006 28.3305 10.3898C28.6922 10.7185 29.0977 11.1035 29.4864 11.5314C29.5963 11.6537 29.701 11.7726 29.8109 11.9048C29.9156 12.0353 30.0339 12.1625 30.1319 12.2881C30.2654 12.4599 30.4023 12.6383 30.5291 12.8234C30.5848 12.9109 30.6541 13.0018 30.7065 13.0894C30.8687 13.324 31.0073 13.5652 31.1408 13.8081C31.1982 13.9187 31.254 14.041 31.303 14.16C31.4534 14.4854 31.5717 14.8142 31.6444 15.1479C31.6684 15.2188 31.6848 15.2919 31.6934 15.366V15.3826C31.717 15.4767 31.7255 15.5808 31.7339 15.6865C31.7815 16.1749 31.7204 16.6675 31.5548 17.1305C31.5024 17.2693 31.4534 17.4114 31.3892 17.5502C31.2625 17.831 31.1171 18.1169 30.9431 18.3795C30.8856 18.4787 30.8163 18.5811 30.7521 18.6802C30.6795 18.7843 30.6017 18.8834 30.5375 18.9776C30.4446 19.1027 30.3471 19.2245 30.2452 19.3427C30.1556 19.4617 30.066 19.5807 29.9646 19.688C29.8278 19.85 29.6943 20.002 29.5506 20.1473C29.4695 20.2432 29.3816 20.3423 29.287 20.4282C29.1991 20.5273 29.1045 20.6149 29.0234 20.6942C28.8814 20.833 28.7699 20.9371 28.6719 21.0279L28.4404 21.2295C28.4081 21.2611 28.3644 21.279 28.3187 21.2791H26.5427V23.5029H28.7767C29.2752 23.5029 29.75 23.331 30.1353 23.0105C30.2654 22.8998 30.8366 22.4157 31.5143 21.6855C31.5363 21.6606 31.5659 21.6433 31.5988 21.6359L37.7668 19.8896C37.7939 19.882 37.8224 19.8805 37.8501 19.8855C37.8779 19.8904 37.9041 19.9015 37.9266 19.918C37.9492 19.9345 37.9676 19.9559 37.9803 19.9805C37.9931 20.0051 37.9998 20.0322 38 20.0598V21.3369Z"/>
</mask>
<path d="M14.4871 18.5613L14.5733 18.4275L19.8508 10.3584C19.8684 10.3318 19.8931 10.3104 19.9221 10.2964C19.9511 10.2824 19.9835 10.2762 20.0158 10.2786C20.048 10.2809 20.0791 10.2917 20.1057 10.3098C20.1322 10.328 20.1533 10.3527 20.1668 10.3815C21.0455 12.3129 21.8093 14.7151 21.4511 16.2103C21.3024 16.8249 20.885 17.6576 20.4135 18.4275C20.353 18.5401 20.287 18.6498 20.2158 18.7562C20.1987 18.78 20.1759 18.7992 20.1493 18.8122C20.1228 18.8252 20.0933 18.8315 20.0637 18.8306H14.6443C14.6119 18.8311 14.58 18.823 14.552 18.8072C14.524 18.7914 14.5009 18.7685 14.4851 18.7408C14.4693 18.7132 14.4615 18.682 14.4624 18.6503C14.4634 18.6187 14.4731 18.5879 14.4905 18.5613H14.4871ZM38 21.3369C38.0004 21.3722 37.9902 21.4068 37.9707 21.4365C37.9512 21.4661 37.9232 21.4895 37.8901 21.5038C37.4795 21.6739 36.082 22.305 35.5007 23.0931C34.017 25.112 32.8847 28 30.3499 28H19.7815C18.8892 27.9987 18.0059 27.8255 17.182 27.4903C16.3582 27.1551 15.61 26.6645 14.9803 26.0464C14.3505 25.4284 13.8514 24.6951 13.5117 23.8884C13.1719 23.0818 12.998 22.2175 13 21.3452V21.2262C13 21.1304 13.0811 21.0511 13.1825 21.0511H19.0717C19.19 21.0511 19.2745 21.1552 19.2661 21.2692C19.2221 21.6425 19.2948 22.0275 19.4773 22.3761C19.8254 23.07 20.5521 23.5029 21.3345 23.5029H24.2512V21.2774H21.3649C21.3311 21.2771 21.298 21.2677 21.2692 21.2503C21.2404 21.233 21.217 21.2082 21.2016 21.1788C21.1861 21.1494 21.1791 21.1164 21.1814 21.0835C21.1837 21.0505 21.1951 21.0187 21.2145 20.9916L21.3209 20.8429C21.5913 20.4613 21.9817 19.8747 22.3704 19.204C22.634 18.7513 22.8908 18.2689 23.097 17.7831C23.1376 17.6972 23.1697 17.6063 23.2068 17.5188C23.2626 17.3635 23.3201 17.2181 23.3606 17.0743C23.4004 16.9525 23.437 16.8296 23.4705 16.7059C23.5668 16.2929 23.6073 15.8567 23.6073 15.4057C23.6073 15.2272 23.6006 15.0406 23.5837 14.8654C23.5752 14.6721 23.5499 14.4772 23.5262 14.2839C23.5073 14.1109 23.4803 13.9389 23.4451 13.7684C23.3996 13.5088 23.3444 13.2509 23.2795 12.9952L23.2559 12.8961C23.2052 12.7176 23.1612 12.5491 23.1038 12.3723C22.9429 11.8295 22.7579 11.2937 22.5495 10.7664C22.4769 10.5681 22.3968 10.3725 22.3095 10.1799C22.1879 9.88585 22.0628 9.61986 21.9496 9.37038C21.8932 9.2635 21.8403 9.15496 21.7907 9.04491C21.7358 8.92619 21.6777 8.80885 21.6167 8.693C21.5761 8.60544 21.5271 8.52118 21.495 8.44188L21.1384 7.80084C21.0894 7.71328 21.1705 7.60589 21.2686 7.63398L23.4992 8.22379H23.5161L23.8084 8.3064L24.1329 8.39562L24.2512 8.42701V7.13338C24.2512 6.50721 24.7615 6 25.3986 6C25.549 5.99961 25.698 6.02897 25.8365 6.08632C25.9751 6.14368 26.1003 6.22784 26.2047 6.33374C26.4204 6.5465 26.5419 6.83377 26.5427 7.13338V9.05648L26.7809 9.12091C26.7978 9.12917 26.8181 9.13743 26.8333 9.149C26.8908 9.18865 26.9753 9.25143 27.0817 9.33073C27.1662 9.39351 27.2558 9.47282 27.3606 9.55708C27.6943 9.82288 28.0178 10.1006 28.3305 10.3898C28.6922 10.7185 29.0977 11.1035 29.4864 11.5314C29.5963 11.6537 29.701 11.7726 29.8109 11.9048C29.9156 12.0353 30.0339 12.1625 30.1319 12.2881C30.2654 12.4599 30.4023 12.6383 30.5291 12.8234C30.5848 12.9109 30.6541 13.0018 30.7065 13.0894C30.8687 13.324 31.0073 13.5652 31.1408 13.8081C31.1982 13.9187 31.254 14.041 31.303 14.16C31.4534 14.4854 31.5717 14.8142 31.6444 15.1479C31.6684 15.2188 31.6848 15.2919 31.6934 15.366V15.3826C31.717 15.4767 31.7255 15.5808 31.7339 15.6865C31.7815 16.1749 31.7204 16.6675 31.5548 17.1305C31.5024 17.2693 31.4534 17.4114 31.3892 17.5502C31.2625 17.831 31.1171 18.1169 30.9431 18.3795C30.8856 18.4787 30.8163 18.5811 30.7521 18.6802C30.6795 18.7843 30.6017 18.8834 30.5375 18.9776C30.4446 19.1027 30.3471 19.2245 30.2452 19.3427C30.1556 19.4617 30.066 19.5807 29.9646 19.688C29.8278 19.85 29.6943 20.002 29.5506 20.1473C29.4695 20.2432 29.3816 20.3423 29.287 20.4282C29.1991 20.5273 29.1045 20.6149 29.0234 20.6942C28.8814 20.833 28.7699 20.9371 28.6719 21.0279L28.4404 21.2295C28.4081 21.2611 28.3644 21.279 28.3187 21.2791H26.5427V23.5029H28.7767C29.2752 23.5029 29.75 23.331 30.1353 23.0105C30.2654 22.8998 30.8366 22.4157 31.5143 21.6855C31.5363 21.6606 31.5659 21.6433 31.5988 21.6359L37.7668 19.8896C37.7939 19.882 37.8224 19.8805 37.8501 19.8855C37.8779 19.8904 37.9041 19.9015 37.9266 19.918C37.9492 19.9345 37.9676 19.9559 37.9803 19.9805C37.9931 20.0051 37.9998 20.0322 38 20.0598V21.3369Z" fill="url(#paint0_linear_862_79)" stroke="url(#paint1_linear_862_79)" stroke-width="2.4" mask="url(#path-2-inside-1_862_79)"/>
<rect x="1" y="1" width="48" height="33" rx="4" stroke="url(#paint2_linear_862_79)" stroke-width="2"/>
<defs>
<linearGradient id="paint0_linear_862_79" x1="38" y1="28" x2="16.1785" y2="3.20289" gradientUnits="userSpaceOnUse">
<stop stop-color="#DF49C7"/>
<stop offset="1" stop-color="#F986BE"/>
</linearGradient>
<linearGradient id="paint1_linear_862_79" x1="38" y1="28" x2="16.1785" y2="3.20289" gradientUnits="userSpaceOnUse">
<stop stop-color="#DF49C7"/>
<stop offset="1" stop-color="#F986BE"/>
</linearGradient>
<linearGradient id="paint2_linear_862_79" x1="50" y1="35" x2="17.1141" y2="-11.9799" gradientUnits="userSpaceOnUse">
<stop stop-color="#DF49C7"/>
<stop offset="1" stop-color="#F986BE"/>
</linearGradient>
</defs>
</svg>
