<svg width="50" height="35" viewBox="0 0 50 35" fill="none" xmlns="http://www.w3.org/2000/svg">
<g clip-path="url(#clip0_862_69)">
<path fill-rule="evenodd" clip-rule="evenodd" d="M19.8151 26C20.4047 25.299 20.9594 24.5694 21.4773 23.8139C22.5684 24.1635 23.7581 24.3891 25.1389 24.3891C26.507 24.3891 27.6874 24.1676 28.7702 23.8236L28.829 23.8236C29.3367 24.576 29.882 25.3024 30.4627 26C34.6783 25.88 36.2777 23.1439 36.2777 23.1439C36.2197 19.2718 35.2841 15.4633 33.5416 12.005C32.007 10.7967 30.1344 10.0959 28.1835 10L27.6123 11.3195C26.7925 11.2081 25.9662 11.1509 25.1389 11.1482C24.3152 11.1528 23.4928 11.212 22.6769 11.3252L22.1057 10.0057C20.1567 10.0967 18.2843 10.7914 16.7476 11.9936C14.9994 15.4544 14.0599 19.267 14 23.1439C14 23.1439 15.5994 25.88 19.8151 26ZM20.2104 19.2767C20.2104 18.496 20.8433 17.8631 21.6241 17.8631C22.4048 17.8631 23.0377 18.496 23.0377 19.2767C23.0377 20.0574 22.4048 20.6903 21.6241 20.6903C20.8433 20.6903 20.2104 20.0574 20.2104 19.2767ZM21.6241 16.8631C20.2911 16.8631 19.2104 17.9437 19.2104 19.2767C19.2104 20.6097 20.2911 21.6903 21.6241 21.6903C22.957 21.6903 24.0377 20.6097 24.0377 19.2767C24.0377 17.9437 22.957 16.8631 21.6241 16.8631ZM27.24 19.2767C27.24 18.496 27.8729 17.8631 28.6536 17.8631C29.4343 17.8631 30.0672 18.496 30.0672 19.2767C30.0672 20.0574 29.4343 20.6903 28.6536 20.6903C27.8729 20.6903 27.24 20.0574 27.24 19.2767ZM28.6536 16.8631C27.3206 16.8631 26.24 17.9437 26.24 19.2767C26.24 20.6097 27.3206 21.6903 28.6536 21.6903C29.9866 21.6903 31.0672 20.6097 31.0672 19.2767C31.0672 17.9437 29.9866 16.8631 28.6536 16.8631Z" fill="url(#paint0_linear_862_69)"/>
</g>
<rect x="1" y="1" width="48" height="33" rx="4" stroke="url(#paint1_linear_862_69)" stroke-width="2"/>
<defs>
<linearGradient id="paint0_linear_862_69" x1="36.2778" y1="26" x2="21.116" y2="4.88925" gradientUnits="userSpaceOnUse">
<stop stop-color="#DF49C7"/>
<stop offset="1" stop-color="#F986BE"/>
</linearGradient>
<linearGradient id="paint1_linear_862_69" x1="50" y1="35" x2="17.1141" y2="-11.9799" gradientUnits="userSpaceOnUse">
<stop stop-color="#DF49C7"/>
<stop offset="1" stop-color="#F986BE"/>
</linearGradient>
<clipPath id="clip0_862_69">
<rect width="24" height="24" fill="white" transform="translate(13 6)"/>
</clipPath>
</defs>
</svg>
